<svg width="60" height="41" viewBox="0 0 60 41" fill="none" xmlns="http://www.w3.org/2000/svg">
<g id="Clip path group">
<mask id="mask0_250_560" style="mask-type:luminance" maskUnits="userSpaceOnUse" x="0" y="0" width="60" height="41">
<g id="__lottie_element_9808">
<path id="Vector" d="M0.5 40V1H59.5V40H0.5Z" fill="white" stroke="white"/>
</g>
</mask>
<g mask="url(#mask0_250_560)">
<g id="Group">
<g id="Group_2">
<g id="Group_3">
<g id="Group_4">
<path id="Vector_2" d="M0.625 38.1652C0.625 38.1652 17.2983 38.2027 16.4584 38.199C15.6184 38.1952 15.0109 39.3127 15.0946 37.254C15.1784 35.2178 18.2871 20.4531 18.2633 21.1456C18.2396 21.8406 16.8833 34.1941 17.9333 30.9579C18.962 27.7842 19.3345 24.4443 19.5645 25.7555C19.7958 27.0767 19.6808 38.8602 20.1645 35.4253C20.6395 32.0554 21.2845 19.4457 20.8507 19.8607C20.417 20.2756 17.7383 22.4218 17.7746 21.4044C17.8108 20.3931 18.0783 17.2395 18.0583 17.8132C18.0383 18.3869 18.2683 21.0894 17.6308 21.6969C16.9908 22.3068 11.756 23.6106 10.6422 23.1043C9.52978 22.5981 10.316 18.5707 10.3048 18.7819C10.2923 18.9932 10.0585 22.1456 11.4535 21.3056C12.8397 20.4719 14.0797 17.952 14.4097 16.5445C14.7359 15.1508 14.4959 14.6308 14.5284 13.9108C14.5609 13.1946 14.3897 12.3758 14.4009 12.1221C14.4122 11.8684 15.7296 11.4446 16.0271 11.1746C16.3234 10.9034 16.7796 10.4421 16.4096 10.4346C16.0409 10.4271 15.1646 10.7059 15.5346 10.7146C15.9046 10.7234 16.7046 10.3971 16.3646 10.0459C16.0246 9.69591 14.6384 10.0072 15.1321 10.0184C15.6246 10.0297 16.6258 9.66591 16.3309 9.36217C16.0359 9.05843 14.7634 9.32592 15.0396 9.33092C15.3171 9.33717 16.4371 9.23842 16.1196 8.91218C15.8009 8.58594 14.6696 8.64094 14.6696 8.64094C14.6696 8.64094 14.5622 7.32722 14.2547 7.01098C13.9472 6.69474 13.6522 6.81973 13.7422 7.49722C13.8309 8.1747 14.0559 8.62719 13.7872 9.09468C13.5184 9.56216 13.0734 10.4196 13.0522 10.8384C13.0347 11.2059 12.4897 13.0733 12.4685 13.6596C12.4597 13.7158 12.4685 13.7733 12.4947 13.8246C12.6697 14.0071 14.4834 14.1083 14.3784 13.6796C14.2734 13.2508 12.3835 12.9683 12.221 13.6971C12.0572 14.4283 11.0422 18.0357 11.5497 18.0445C12.0572 18.0532 13.5484 14.0283 13.3222 14.8208C13.0947 15.617 12.506 17.312 13.1172 16.452C13.7247 15.5983 13.7322 14.217 13.1859 14.4195C12.6384 14.622 11.6897 14.8183 11.541 15.247C11.3922 15.6758 10.1673 17.8945 10.4185 19.6657C10.6735 21.4544 10.7272 23.3306 11.846 22.2818C12.9572 21.2406 14.3259 17.5632 14.2522 19.1907C14.1772 20.8344 14.5784 23.3043 14.9634 21.8019C15.3446 20.3131 15.1584 15.8108 14.9846 16.2095C14.8096 16.6082 15.6659 16.4382 16.8508 15.782C18.0308 15.1295 19.1283 13.9296 18.9183 14.657C18.707 15.387 17.9896 17.2257 18.1696 16.5482C18.3496 15.8733 18.4108 14.9533 19.3245 14.6045C20.2358 14.257 21.0595 13.5746 21.047 14.0296C21.0357 14.4845 19.702 16.5145 20.5495 16.3457C21.8382 16.0258 23.0269 15.387 24.0032 14.4858C25.0969 13.4483 25.4681 13.2746 25.4719 13.0333C25.4756 12.7921 25.8994 10.5621 25.7394 11.1534C25.5806 11.7434 23.6407 14.1146 22.5445 13.3946C21.452 12.6771 21.3132 10.8446 21.327 10.3096C21.392 9.64716 21.4895 8.98843 21.6207 8.3372C21.6207 8.3372 21.4582 8.80343 23.2519 8.84593C25.0419 8.88843 25.2219 8.98093 25.2219 8.98093C25.2219 8.98093 25.2719 9.68966 25.2631 10.3696C25.2531 11.0521 25.6256 11.2996 25.7644 11.9896C25.9044 12.6796 26.1081 13.6196 25.4606 13.8783C24.8119 14.1371 26.0681 14.3758 26.9356 13.5471C27.7981 12.7233 27.8931 12.4846 27.5956 11.2546C27.3018 10.0322 26.6718 9.22092 26.6731 9.04468C26.6756 8.86843 27.1006 8.52719 26.8881 8.78593C26.6743 9.04468 27.2656 6.87098 27.1468 6.75223C27.0268 6.63349 26.0706 6.2335 24.9044 5.88601C23.7382 5.53852 22.3957 5.66226 22.227 5.81601C22.0582 5.971 21.492 8.59844 21.7157 8.16345C21.9395 7.72846 18.0633 6.37724 18.3146 6.151C18.5658 5.92476 24.9269 4.39229 25.1656 4.39854C25.4056 4.40479 30.5355 8.96093 29.753 9.05968C28.9705 9.15842 27.0668 9.02468 27.0668 9.02468C27.0668 9.02468 26.1006 8.91468 25.7981 8.90718C25.4956 8.89968 25.3694 7.08598 25.6931 7.64596C26.0169 8.20595 26.7856 9.9309 26.8968 11.0896C27.0093 12.2546 26.5394 13.3258 26.2144 13.6358C25.8894 13.9458 24.4907 14.8745 24.0082 15.9658C23.5219 17.0645 23.6907 20.7169 23.8957 22.4781C24.1032 24.2568 23.7582 29.0717 24.9219 30.3016C26.0919 31.5391 26.8831 32.4278 27.2793 31.4254C27.6718 30.4291 28.9043 27.7717 28.908 26.3555C28.9118 24.9505 28.8343 23.3481 28.6793 22.9318C28.5231 22.5156 24.9794 21.7644 25.1269 22.4968C25.2756 23.2331 27.6068 23.4906 27.2931 23.1668C26.9806 22.8431 24.4769 22.7256 25.0519 23.3256C25.6269 23.9243 27.1456 24.1406 26.9731 23.9618C26.8006 23.7831 24.9244 23.4206 25.2006 24.0006C25.4769 24.5805 26.9331 24.7643 26.9343 24.6355C26.9356 24.5068 25.1031 24.2243 25.0956 24.7718C25.0881 25.3193 26.5131 25.6618 27.0843 25.6693C27.6556 25.6768 27.8181 25.0968 27.5943 25.3205C27.3718 25.543 27.8281 28.7117 27.1856 28.9354C26.5431 29.1592 24.8731 29.1754 24.8844 28.4167C24.8944 27.6617 25.4056 15.7333 25.6519 15.7383C25.8994 15.7433 29.1493 16.5545 28.6118 16.0095C28.0743 15.4633 25.3394 15.247 26.1794 15.6258C27.0193 16.0045 28.5518 15.8233 28.5481 16.497C28.5456 17.1732 27.6018 24.1943 27.6018 24.1943C27.6018 24.1943 27.7981 28.2842 28.0268 27.338C28.2293 26.348 28.3293 25.3418 28.3268 24.3318C28.3306 23.5631 28.2781 21.6244 28.2756 22.0356C28.2731 22.4468 28.7368 24.4968 28.4118 26.7217C28.0818 28.9767 27.2318 31.2891 27.2206 32.8991C27.2081 34.5228 27.7981 39.1752 27.4131 37.819C27.0293 36.4715 25.1319 31.6054 25.1094 33.2541C25.0869 34.9178 25.4444 37.6702 25.1294 36.5977C24.8156 35.5303 22.2232 25.2155 22.147 28.7142C22.0695 32.2828 23.1332 37.9352 22.237 38.1402C21.3407 38.3452 19.0058 37.6215 23.3969 37.9465C27.7718 38.2702 29.4118 37.9765 29.4118 37.9765C29.4118 37.9765 31.9592 37.1927 31.718 37.4352C31.4755 37.6777 28.673 38.9839 28.4793 37.484C28.2856 35.984 28.2856 31.0979 28.4793 30.0329C28.673 28.9679 28.3831 28.098 28.673 29.3554C28.963 30.6129 29.6393 32.9841 30.1718 32.4516C30.7042 31.9191 32.298 29.0167 32.298 28.4367C32.298 27.8555 29.6518 27.7805 29.6518 26.8992C29.6518 26.018 29.5568 25.9255 29.5568 25.548C29.5568 25.1705 29.6518 25.1705 29.6518 24.8868C29.6518 24.603 29.5568 24.5405 29.7455 24.0368C29.9343 23.5331 29.7455 23.3143 30.3118 23.3143C30.878 23.3143 33.1392 23.4081 33.1392 24.0368C33.1392 24.6655 30.248 24.3518 30.8455 24.1318C31.443 23.9118 33.6579 24.6193 33.1392 25.138C32.6204 25.6568 30.5318 25.0118 31.0655 25.0118C31.6005 25.0118 33.4067 25.3105 32.8879 25.8305C32.3692 26.3492 30.5942 25.9243 31.0655 25.9243C31.538 25.9243 33.1879 26.1293 32.7317 26.5855C32.2755 27.0417 30.7355 26.8517 30.563 27.0255C30.3893 27.1992 30.123 29.0067 30.5005 29.3842C30.878 29.7617 32.4167 29.6379 32.5742 29.2279C32.7317 28.8179 32.8879 16.4557 32.6679 16.2357C32.448 16.0158 29.5718 15.8108 30.0918 16.3295C30.6105 16.8495 33.1392 16.8645 32.323 16.582C31.5067 16.2995 29.998 16.0158 29.998 16.7082C29.998 17.4007 30.438 23.5968 30.6267 22.9043C30.8155 22.2118 29.9355 16.487 30.438 15.6383C30.5193 15.5033 30.618 15.3795 30.7305 15.2695C31.3292 14.677 32.288 14.3858 32.5129 14.1608C32.7804 13.8933 32.3855 13.2796 32.4492 13.7196C32.5129 14.1608 33.2667 15.1033 34.6179 15.8895C35.9691 16.6757 38.0441 17.957 37.8866 17.3645C37.7291 16.772 36.7553 16.4882 36.7553 15.292C36.7553 14.977 36.7641 14.712 36.7766 14.492C36.7853 14.2008 36.8216 13.9108 36.8816 13.6246C36.8816 13.6246 34.8379 14.882 33.7067 12.8696C32.5754 10.8559 32.5117 10.3209 32.5117 10.3209C32.5117 10.3209 32.4542 11.1709 32.028 10.1009C31.6017 9.03093 31.5817 8.39469 32.028 8.84218C32.4742 9.28967 32.7329 10.1646 32.7329 9.66091C32.7329 9.15717 32.6067 8.93718 32.7329 8.55969C32.8592 8.1822 33.6129 7.67846 34.5242 7.48972C35.4354 7.30097 36.0954 7.55346 36.4104 7.55346C36.7241 7.55346 37.6528 7.39597 37.8953 7.39597C38.0691 7.39597 38.1978 7.98345 38.2578 8.59469C38.2828 8.84343 38.2953 9.09593 38.2953 9.31592C38.2953 10.0709 38.0441 13.0583 37.4466 13.0583C36.8503 13.0583 38.4528 11.9571 38.0441 8.71719C37.6353 5.47727 37.7616 5.35227 37.4153 5.00603C37.0691 4.65979 35.7816 4.1873 34.3354 4.69104C32.8892 5.19477 32.028 5.88601 32.028 6.16975C32.028 6.45349 32.1355 8.2772 32.418 7.99345C32.7004 7.70971 28.3156 7.25972 28.4731 6.69349C28.6305 6.12725 34.9254 1.81236 34.5942 2.1436C34.2629 2.47359 41.5152 4.89603 41.7515 4.65979C41.9877 4.42354 41.7515 4.2198 41.7515 4.43979C41.7515 4.66104 42.024 7.26972 41.8565 8.1197C41.689 8.96843 41.5627 10.3859 41.7202 9.88216C41.8777 9.37842 41.6577 7.64721 41.6577 7.86846C41.6577 8.0897 41.0915 9.85091 41.2802 9.15842C41.5015 8.34969 41.6077 7.51222 41.594 6.67349C41.594 5.60351 41.784 5.00603 41.4065 5.00603C41.029 5.00603 38.4353 6.87723 38.2628 7.05098C38.0903 7.22472 38.5153 6.45224 36.6291 6.2635C34.7429 6.07475 33.0467 6.89348 33.0467 7.45972C33.0467 8.02595 33.9267 8.59219 33.6117 9.22092C33.2979 9.84966 33.0467 9.50467 33.0467 10.2909C33.0467 11.0771 33.2667 12.9333 33.1092 13.4046C32.9517 13.8771 32.9517 13.6258 32.9517 13.8771C32.9517 14.1296 31.6317 14.537 32.4805 15.7008C33.3292 16.8645 33.3917 18.0295 35.6866 19.3819C37.9803 20.7344 39.269 22.7481 39.269 22.3393C39.269 21.9306 39.4578 21.7719 39.4578 20.0419C39.4578 18.3119 39.5203 17.747 39.3003 17.0857C39.0803 16.4245 37.4778 14.317 37.4778 14.632C37.4778 14.947 38.5466 14.5683 40.5578 15.3233C42.5689 16.0783 44.8626 15.2295 45.3351 15.702C45.8064 16.1757 47.7226 19.2244 46.5913 18.092C45.4601 16.9595 45.7114 17.2745 45.7114 15.0733C45.7114 12.8708 45.3339 10.7946 45.3339 11.6759C45.3339 12.5571 45.3364 13.8146 46.9438 15.0095C48.5501 16.2045 49.1688 18.6982 49.5463 20.3144C49.9238 21.9306 51.3062 23.1893 50.74 22.6231C50.1738 22.0569 50.875 21.9931 50.875 19.4769C50.875 16.9595 50.5525 15.4508 50.0488 14.1296C49.7063 13.2821 49.195 12.5121 48.5501 11.8646C48.5501 11.8646 48.2763 14.0708 48.3063 15.0108C48.3188 15.4083 48.3851 15.5795 48.5501 15.2608C49.105 14.1908 48.0376 11.6759 48.0376 11.2971C48.0376 10.9184 47.5338 11.5496 46.6538 11.5496C46.4064 11.5559 46.1601 11.5084 45.9326 11.4109C45.7051 11.3134 45.5001 11.1671 45.3339 10.9834C45.3339 10.9834 44.7064 9.66091 44.7064 8.74843C44.7064 7.83471 44.5177 7.27097 44.5177 6.67349C44.5177 6.076 43.8264 5.16227 44.4864 5.35102C45.1464 5.53976 45.2401 6.201 45.4289 6.70474C45.5401 6.98723 45.6039 7.28347 45.6176 7.58471C45.6176 7.58471 44.8151 7.69471 45.1451 8.02595C45.4751 8.35594 47.4726 7.71096 46.9063 7.71096C46.3401 7.71096 44.7989 8.05595 45.3339 8.59094C45.8689 9.12593 47.1888 8.24595 47.1888 8.24595C47.1888 8.24595 45.2089 8.87468 45.6489 9.31592C46.0889 9.75716 47.3463 9.00093 47.3463 9.00093C47.3463 9.00093 45.3814 9.67716 45.8051 10.1022C46.2301 10.5271 47.8163 9.88216 47.9426 9.25217C48.0688 8.62219 48.1001 7.89971 47.6601 7.45972C47.2201 7.01848 45.9001 7.01848 45.9001 7.27097C45.9001 7.52222 47.3451 7.42722 47.4713 8.3397C47.5976 9.25217 47.5026 9.50342 47.5026 10.1646C47.5026 10.8246 48.9013 19.2507 48.5501 19.6019C48.1988 19.9532 46.5176 19.0107 47.5338 20.3131C48.5501 21.6156 50.7712 24.1643 50.2363 23.6293C49.7013 23.0943 49.9225 24.3205 47.2201 25.0755C44.5177 25.8305 40.8077 22.8106 40.8077 22.1819C40.8077 21.5519 45.0839 24.573 44.7064 23.3143C44.3289 22.0556 40.5578 18.2182 42.3802 19.2244C44.2027 20.2319 46.6538 23.1881 46.2139 21.6156C45.7739 20.0419 42.7589 16.9595 41.8152 17.9032C40.8715 18.8469 40.7452 22.4968 41.0602 24.258C41.3752 26.0193 43.5752 39.7989 43.2602 38.1627C42.9464 36.5265 38.9853 24.1931 38.9853 25.0743C38.9853 25.9543 39.0478 34.0716 38.7328 31.9954C38.4178 29.9192 36.9103 24.8855 36.9103 26.018C36.9103 27.1505 36.5328 33.2541 36.5328 30.6116C36.5328 27.9692 35.2129 21.6769 34.8354 24.7605C34.4579 27.843 35.3379 38.7264 35.0229 36.9652C34.7091 35.204 32.8229 30.9891 32.8229 32.6878C32.8229 33.9616 33.2117 36.594 33.1417 37.8302C33.1179 38.2427 33.0442 38.4989 32.8867 38.4989H59.4985" stroke="#A8E4FF" stroke-width="1.49996" stroke-linecap="round" stroke-linejoin="round"/>
</g>
</g>
</g>
</g>
</g>
</g>
</svg>
