<svg width="74" height="44" viewBox="0 0 74 44" fill="none" xmlns="http://www.w3.org/2000/svg">
<g id="Group">
<g id="Group_2">
<g id="Group_3">
<path id="Vector" d="M36.6736 5.91944C36.6736 5.91944 34.9828 4.05851 32.1456 4.62594C28.9112 5.27269 25.6768 9.8006 18.5605 6.56619" stroke="#A8E4FF" stroke-width="3.60325" stroke-linecap="round" stroke-linejoin="round"/>
</g>
</g>
<g id="Group_4">
<g id="Group_5">
<path id="Vector_2" d="M37.9683 14.3291C37.9683 14.3291 43.7903 18.2103 46.378 20.7979C48.9657 23.3856 58.0703 31.2401 54.141 34.383C50.9066 36.9707 43.1436 26.62 43.1436 26.62" stroke="#A8E4FF" stroke-width="3.60325" stroke-linecap="round" stroke-linejoin="round"/>
</g>
</g>
<g id="Group_6">
<g id="Group_7">
<path id="Vector_3" d="M38.6143 31.1487C38.6143 31.1487 48.9643 43.4396 51.5519 34.3831" stroke="#A8E4FF" stroke-width="3.60325" stroke-linecap="round" stroke-linejoin="round"/>
</g>
</g>
<g id="Group_8">
<g id="Group_9">
<path id="Vector_4" d="M36.0264 35.6763C36.0264 35.6763 42.4959 42.7932 45.0835 37.6179" stroke="#A8E4FF" stroke-width="3.60325" stroke-linecap="round" stroke-linejoin="round"/>
</g>
</g>
<g id="Group_10">
<g id="Group_11">
<path id="Vector_5" d="M17.9119 29.8552C17.9119 29.8552 14.6768 24.6792 10.7949 22.7383" stroke="#A8E4FF" stroke-width="3.60325" stroke-linecap="round" stroke-linejoin="round"/>
</g>
</g>
<g id="Group_12">
<g id="Group_13">
<path id="Vector_6" d="M39.9073 39.5596C39.9073 39.5596 38.6138 42.7933 33.4385 40.2056" stroke="#A8E4FF" stroke-width="3.60325" stroke-linecap="round" stroke-linejoin="round"/>
</g>
</g>
<g id="Group_14">
<g id="Group_15">
<path id="Vector_7" d="M54.7852 31.1485L63.8423 24.6797" stroke="#A8E4FF" stroke-width="3.60325" stroke-linecap="round" stroke-linejoin="round"/>
</g>
</g>
<g id="Group_16">
<g id="Group_17">
<path id="Vector_8" d="M19.2059 33.7363C17.5565 32.0869 17.9124 29.2077 21.1468 27.2675C24.3812 25.3266 27.6157 27.9142 25.028 31.1486C22.4403 34.3831 21.1468 35.6772 19.2059 33.7363Z" stroke="#A8E4FF" stroke-width="3.60325" stroke-linecap="round" stroke-linejoin="round"/>
</g>
</g>
<g id="Group_18">
<g id="Group_19">
<path id="Vector_9" d="M23.7344 38.2652C21.8687 36.8659 22.4409 33.7366 25.6753 31.7964C28.9097 29.8554 32.7909 31.1489 30.2032 35.0308C27.9057 38.4774 26.322 40.2061 23.7344 38.2652Z" stroke="#A8E4FF" stroke-width="3.60325" stroke-linecap="round" stroke-linejoin="round"/>
</g>
</g>
<g id="Group_20">
<g id="Group_21">
<path id="Vector_10" d="M26.9697 39.5581C26.9697 39.5581 27.5534 41.4997 30.8516 41.4997C32.7925 41.4997 34.0867 35.677 31.499 34.3828" stroke="#A8E4FF" stroke-width="3.60325" stroke-linecap="round" stroke-linejoin="round"/>
</g>
</g>
<g id="Group_22">
<g id="Group_23">
<path id="Vector_11" d="M14.6787 25.9734C14.6787 25.9734 11.4443 31.7955 17.9131 31.7955" stroke="#A8E4FF" stroke-width="3.60325" stroke-linecap="round" stroke-linejoin="round"/>
</g>
</g>
<g id="Group_24">
<g id="Group_25">
<path id="Vector_12" d="M54.788 6.56616C54.788 6.56616 54.1413 8.50708 49.6127 8.50708C45.0841 8.50708 40.5555 4.62524 37.3211 6.56616C34.0867 8.50708 28.2639 12.3882 28.2639 12.3882L25.6763 18.8571C25.6763 18.8571 30.2049 24.6798 34.7334 15.6227C36.6737 14.9759 40.5555 13.035 40.5555 13.035" stroke="#A8E4FF" stroke-width="3.60325" stroke-linecap="round" stroke-linejoin="round"/>
</g>
</g>
<g id="Group_26">
<g id="Group_27">
<path id="Vector_13" d="M11.1186 1.63626C12.2684 2.21657 16.7041 4.45646 16.7041 4.45646L7.51674 22.642L1.66211 19.6842L10.8495 1.5C10.8495 1.5 10.9478 1.54949 11.1186 1.63626Z" stroke="#A8E4FF" stroke-width="1.80163" stroke-linecap="round" stroke-linejoin="round"/>
</g>
</g>
<g id="Group_28">
<g id="Group_29">
<path id="Vector_14" d="M62.8814 1.63626C61.7316 2.21657 57.2959 4.45646 57.2959 4.45646L66.4832 22.642L72.3379 19.6842L63.1505 1.5C63.1505 1.5 63.0522 1.54949 62.8814 1.63626Z" stroke="#A8E4FF" stroke-width="1.80163" stroke-linecap="round" stroke-linejoin="round"/>
</g>
</g>
</g>
</svg>
